<svg id="Group_365" data-name="Group 365" xmlns="http://www.w3.org/2000/svg" width="122.372" height="51.997" viewBox="0 0 122.372 51.997">
  <path id="PF-Logo-03" d="M308.854,430.21a7.053,7.053,0,0,0-2.194-5.139,5.871,5.871,0,0,1-1.708-5.289,7.53,7.53,0,0,0-.055-2.773,6.761,6.761,0,0,0-1.192-2.663,7.111,7.111,0,0,0-4.787-2.861,5.861,5.861,0,0,1-4.486-3.264,7.11,7.11,0,0,0-9.5-3.3c-.093.045-.186.092-.277.142a6.4,6.4,0,0,0,1.142,11.76,13.947,13.947,0,0,1,0,26.769,6.356,6.356,0,0,0-4.517,6.114h0a6.4,6.4,0,0,0,3.388,5.656,7.11,7.11,0,0,0,9.624-2.909c.045-.087.091-.174.133-.262a5.862,5.862,0,0,1,4.5-3.264A7.114,7.114,0,0,0,305,440.9c-.013-.1-.029-.192-.045-.287a5.87,5.87,0,0,1,1.725-5.279A7.057,7.057,0,0,0,308.854,430.21Zm-18.206,0a7.591,7.591,0,1,0-7.591,7.592,7.591,7.591,0,0,0,7.591-7.592Z" transform="translate(-186.482 -404.206)" fill="#fff"/>
  <g id="Group_298" data-name="Group 298" transform="translate(0 6.456)">
    <path id="Path_415" data-name="Path 415" d="M222.99,425.234a5.894,5.894,0,0,0,4.4-1.85,6.38,6.38,0,0,0-.02-8.849,6.116,6.116,0,0,0-8.777,0,6.37,6.37,0,0,0-.012,8.851A5.933,5.933,0,0,0,222.99,425.234Zm-2.125-8.513a2.793,2.793,0,0,1,2.116-.949,2.826,2.826,0,0,1,2.129.952,3.184,3.184,0,0,1,.92,2.289,3.086,3.086,0,0,1-.9,2.246,3,3,0,0,1-4.308.013,3.113,3.113,0,0,1-.874-2.249A3.212,3.212,0,0,1,220.865,416.721Z" transform="translate(-197.747 -409.035)" fill="#fff"/>
    <path id="Path_416" data-name="Path 416" d="M234.572,425.821a5.359,5.359,0,0,0,3.145-1.069v.725h3.094V409.622h-3.094v4.533a5.451,5.451,0,0,0-3.049-.889,5.976,5.976,0,0,0-4.414,1.844,6.106,6.106,0,0,0-1.806,4.424,6.182,6.182,0,0,0,1.78,4.428A5.84,5.84,0,0,0,234.572,425.821Zm-2.085-8.534a3.1,3.1,0,0,1,4.424-.035,3.248,3.248,0,0,1,.882,2.347,3.166,3.166,0,0,1-3.1,3.2,2.89,2.89,0,0,1-2.185-.962,3.281,3.281,0,0,1-.024-4.552Z" transform="translate(-195.51 -409.622)" fill="#fff"/>
    <path id="Path_417" data-name="Path 417" d="M242.971,424.473a4.672,4.672,0,0,0,5.34-.286v.727h3.135V412.97h-3.218v6.747a2.128,2.128,0,0,1-4.255,0V412.97h-3.195v6.115a8.544,8.544,0,0,0,.536,3.445A4.259,4.259,0,0,0,242.971,424.473Z" transform="translate(-193.142 -408.979)" fill="#fff"/>
    <path id="Path_418" data-name="Path 418" d="M200.815,444.965h3.191v-7.059H209.5v-3.171h-5.492v-2.454H209.5v-3.173h-8.683Z" transform="translate(-200.815 -405.88)" fill="#fff"/>
    <path id="Path_419" data-name="Path 419" d="M218.728,432.77a5.447,5.447,0,0,0-3.048-.892,5.982,5.982,0,0,0-4.415,1.844,6.1,6.1,0,0,0-1.806,4.416,6.184,6.184,0,0,0,1.792,4.428,5.842,5.842,0,0,0,4.344,1.867,5.642,5.642,0,0,0,3.134-1v.662h3.1V432.146h-3.1Zm-.842,7.728a2.945,2.945,0,0,1-2.179.917,2.9,2.9,0,0,1-2.187-.952,3.281,3.281,0,0,1-.013-4.558,2.873,2.873,0,0,1,2.191-.948,2.933,2.933,0,0,1,2.2.918,3.162,3.162,0,0,1,.9,2.321A3.085,3.085,0,0,1,217.887,440.5Z" transform="translate(-199.156 -405.349)" fill="#fff"/>
    <path id="Path_420" data-name="Path 420" d="M230.751,439.869a3.62,3.62,0,0,1-2.961,1.545,3.088,3.088,0,0,1-2.361-.97,3.233,3.233,0,0,1-.927-2.336,2.994,2.994,0,0,1,.925-2.248,3.222,3.222,0,0,1,2.364-.923,3.451,3.451,0,0,1,2.928,1.509l.416.56,2.4-1.568-.38-.648a5.63,5.63,0,0,0-2.242-2.155,6.421,6.421,0,0,0-3.066-.757,6.1,6.1,0,0,0-4.587,1.859,6.238,6.238,0,0,0-1.787,4.466,6.091,6.091,0,0,0,1.782,4.425,5.963,5.963,0,0,0,4.407,1.8,6.942,6.942,0,0,0,3.1-.7,5.959,5.959,0,0,0,2.373-2.093l.421-.639-2.365-1.682Z" transform="translate(-196.849 -405.349)" fill="#fff"/>
    <path id="Path_421" data-name="Path 421" d="M246.1,431.878a5.922,5.922,0,0,0-4.4,1.857,6.37,6.37,0,0,0-.012,8.851,6.172,6.172,0,0,0,8.809,0,6.378,6.378,0,0,0-.02-8.848A5.9,5.9,0,0,0,246.1,431.878Zm2.141,8.58a3,3,0,0,1-4.308.016,3.119,3.119,0,0,1-.873-2.252,3.2,3.2,0,0,1,.913-2.3,2.792,2.792,0,0,1,2.117-.948,2.827,2.827,0,0,1,2.128.949,3.188,3.188,0,0,1,.92,2.289A3.08,3.08,0,0,1,248.244,440.458Z" transform="translate(-193.309 -405.349)" fill="#fff"/>
    <path id="Path_422" data-name="Path 422" d="M213.811,417.778a1.506,1.506,0,0,1,1.5-1.505h1.818v-3.1h-1.818a4.61,4.61,0,0,0-4.6,4.6v7.362h3.1Z" transform="translate(-198.916 -408.94)" fill="#fff"/>
    <path id="Path_423" data-name="Path 423" d="M251.967,436.977v7.362h3.1v-7.362a1.506,1.506,0,0,1,1.5-1.5h1.818v-3.1h-1.818A4.61,4.61,0,0,0,251.967,436.977Z" transform="translate(-190.994 -405.254)" fill="#fff"/>
    <path id="Path_424" data-name="Path 424" d="M264.859,438.567l-2.9-6.464h-3.332l4.581,10.322-.628,1.4a2.142,2.142,0,0,1-1.925,1.209h-1.52v3.041h1.52a4.9,4.9,0,0,0,4.667-2.909l5.024-11.455.048-.179.623-1.428h-3.353Z" transform="translate(-189.716 -405.306)" fill="#fff"/>
    <path id="Path_425" data-name="Path 425" d="M269.132,422.72a1.505,1.505,0,0,1-1.5-1.5V419.2l.017,0V416.46h2.06v-2.922h-2.06v-3.911h-3.133v3.911h-1.794v2.922h1.794v3.146l.014,0v1.613a4.611,4.611,0,0,0,4.606,4.6h1.1v-3.1Z" transform="translate(-188.93 -409.621)" fill="#fff"/>
    <path id="Path_426" data-name="Path 426" d="M237.815,440.4v-2.02h.017V435.64h2.061v-2.923h-2.061v-3.789H234.7v3.789H232.9v2.923H234.7v3.145h.015V440.4a4.61,4.61,0,0,0,4.6,4.6h1.1v-3.1h-1.1A1.507,1.507,0,0,1,237.815,440.4Z" transform="translate(-194.654 -405.915)" fill="#fff"/>
    <path id="Path_427" data-name="Path 427" d="M257.738,425.234a6.946,6.946,0,0,0,3.1-.7,5.956,5.956,0,0,0,2.372-2.093l.421-.639-2.365-1.682-.435.554a3.62,3.62,0,0,1-2.961,1.545,3.09,3.09,0,0,1-2.361-.97,3.235,3.235,0,0,1-.927-2.336,2.987,2.987,0,0,1,.926-2.248,3.219,3.219,0,0,1,2.363-.923,3.453,3.453,0,0,1,2.929,1.509l.415.559,2.4-1.566-.38-.648a5.625,5.625,0,0,0-2.242-2.156,6.432,6.432,0,0,0-3.065-.756,6.107,6.107,0,0,0-4.588,1.86A6.24,6.24,0,0,0,251.548,419a6.1,6.1,0,0,0,1.782,4.426A5.966,5.966,0,0,0,257.738,425.234Z" transform="translate(-191.074 -409.035)" fill="#fff"/>
    <path id="Path_428" data-name="Path 428" d="M206.623,409.75H200.83v16.021h3.147v-6.937h2.646a4.542,4.542,0,1,0,0-9.083Zm-.072,6.032h-2.575v-2.944h2.575a1.472,1.472,0,0,1,0,2.944Z" transform="translate(-200.813 -409.597)" fill="#fff"/>
  </g>
</svg>
