<svg xmlns="http://www.w3.org/2000/svg" width="669.896" height="386.904" viewBox="0 0 669.896 386.904">
  <g id="Group_826" data-name="Group 826" transform="translate(-363 -1064)">
    <g id="Group_366" data-name="Group 366" transform="translate(13 -207)">
      <rect id="Rectangle_93" data-name="Rectangle 93" width="597" height="336" rx="30" transform="translate(350 1271)" fill="#101010"/>
      <g id="Group_309" data-name="Group 309" transform="translate(544.675 1395.22)">
        <path id="PF-Logo-03" d="M332.14,448.346a11.972,11.972,0,0,0-3.725-8.723,9.966,9.966,0,0,1-2.9-8.978,12.783,12.783,0,0,0-.093-4.706,11.475,11.475,0,0,0-2.023-4.52,12.071,12.071,0,0,0-8.126-4.856,9.949,9.949,0,0,1-7.614-5.54,12.07,12.07,0,0,0-16.122-5.609c-.158.077-.316.156-.469.241a10.87,10.87,0,0,0,1.938,19.963,23.674,23.674,0,0,1,0,45.439,10.789,10.789,0,0,0-7.667,10.378h0a10.865,10.865,0,0,0,5.75,9.6,12.069,12.069,0,0,0,16.337-4.937c.077-.148.154-.3.227-.445a9.95,9.95,0,0,1,7.634-5.54A12.075,12.075,0,0,0,325.593,466.5c-.022-.164-.049-.326-.077-.488a9.964,9.964,0,0,1,2.928-8.962A11.978,11.978,0,0,0,332.14,448.346Zm-30.9,0a12.885,12.885,0,1,0-12.885,12.887,12.885,12.885,0,0,0,12.885-12.887Z" transform="translate(-124.418 -404.206)" fill="#fff"/>
        <g id="Group_298" data-name="Group 298" transform="translate(0 10.959)">
          <path id="Path_415" data-name="Path 415" d="M227.309,433.991a10,10,0,0,0,7.468-3.14,10.829,10.829,0,0,0-.034-15.022,10.382,10.382,0,0,0-14.9,0,10.814,10.814,0,0,0-.02,15.024A10.071,10.071,0,0,0,227.309,433.991ZM223.7,419.54a4.741,4.741,0,0,1,3.591-1.611,4.8,4.8,0,0,1,3.614,1.617,5.4,5.4,0,0,1,1.562,3.885,5.238,5.238,0,0,1-1.524,3.812,5.094,5.094,0,0,1-7.313.022,5.284,5.284,0,0,1-1.483-3.818A5.453,5.453,0,0,1,223.7,419.54Z" transform="translate(-184.458 -406.494)" fill="#fff"/>
          <path id="Path_416" data-name="Path 416" d="M238.843,437.12a9.1,9.1,0,0,0,5.338-1.815v1.23h5.253V409.622h-5.253v7.695a9.253,9.253,0,0,0-5.176-1.509,10.143,10.143,0,0,0-7.493,3.13,10.365,10.365,0,0,0-3.065,7.509,10.493,10.493,0,0,0,3.021,7.517A9.914,9.914,0,0,0,238.843,437.12ZM235.3,422.634a5.258,5.258,0,0,1,7.509-.059,5.514,5.514,0,0,1,1.5,3.984,5.374,5.374,0,0,1-5.257,5.435,4.906,4.906,0,0,1-3.709-1.633,5.57,5.57,0,0,1-.04-7.727Z" transform="translate(-172.538 -409.622)" fill="#fff"/>
          <path id="Path_417" data-name="Path 417" d="M244.5,432.5a7.931,7.931,0,0,0,9.065-.486v1.234h5.321V412.97h-5.463v11.452a3.612,3.612,0,0,1-7.224,0V412.97h-5.423v10.38a14.5,14.5,0,0,0,.91,5.848A7.23,7.23,0,0,0,244.5,432.5Z" transform="translate(-159.918 -406.196)" fill="#fff"/>
          <path id="Path_418" data-name="Path 418" d="M200.815,456.025h5.416V444.043h9.323V438.66h-9.323V434.5h9.323v-5.387H200.815Z" transform="translate(-200.815 -389.68)" fill="#fff"/>
          <path id="Path_419" data-name="Path 419" d="M225.193,433.392a9.247,9.247,0,0,0-5.174-1.513,10.155,10.155,0,0,0-7.495,3.13,10.358,10.358,0,0,0-3.065,7.5,10.5,10.5,0,0,0,3.041,7.517,9.917,9.917,0,0,0,7.373,3.169,9.576,9.576,0,0,0,5.319-1.7v1.123h5.255V432.333h-5.255Zm-1.428,13.118a5,5,0,0,1-3.7,1.556,4.928,4.928,0,0,1-3.713-1.617,5.569,5.569,0,0,1-.022-7.737,4.877,4.877,0,0,1,3.719-1.609,4.978,4.978,0,0,1,3.737,1.558,5.367,5.367,0,0,1,1.536,3.94A5.237,5.237,0,0,1,223.764,446.509Z" transform="translate(-191.97 -386.845)" fill="#fff"/>
          <path id="Path_420" data-name="Path 420" d="M237.223,445.443a6.145,6.145,0,0,1-5.026,2.622,5.243,5.243,0,0,1-4.008-1.647,5.488,5.488,0,0,1-1.574-3.966,5.083,5.083,0,0,1,1.57-3.816,5.47,5.47,0,0,1,4.012-1.566,5.858,5.858,0,0,1,4.969,2.562l.706.951,4.073-2.661-.646-1.1a9.556,9.556,0,0,0-3.806-3.658,10.9,10.9,0,0,0-5.2-1.285,10.362,10.362,0,0,0-7.786,3.156,10.589,10.589,0,0,0-3.033,7.582,10.34,10.34,0,0,0,3.025,7.511,10.122,10.122,0,0,0,7.48,3.063,11.784,11.784,0,0,0,5.257-1.2,10.115,10.115,0,0,0,4.029-3.553l.714-1.085-4.014-2.855Z" transform="translate(-179.677 -386.845)" fill="#fff"/>
          <path id="Path_421" data-name="Path 421" d="M250.423,431.878a10.052,10.052,0,0,0-7.466,3.152,10.813,10.813,0,0,0-.02,15.024,10.477,10.477,0,0,0,14.953,0,10.827,10.827,0,0,0-.034-15.02A10.007,10.007,0,0,0,250.423,431.878Zm3.634,14.564a5.094,5.094,0,0,1-7.313.026,5.3,5.3,0,0,1-1.481-3.822,5.44,5.44,0,0,1,1.55-3.9,4.74,4.74,0,0,1,3.594-1.609,4.8,4.8,0,0,1,3.612,1.611,5.411,5.411,0,0,1,1.562,3.885A5.229,5.229,0,0,1,254.057,446.442Z" transform="translate(-160.805 -386.845)" fill="#fff"/>
          <path id="Path_422" data-name="Path 422" d="M215.974,420.989a2.556,2.556,0,0,1,2.552-2.556h3.086v-5.261h-3.086a7.825,7.825,0,0,0-7.816,7.816v12.5h5.265Z" transform="translate(-190.691 -405.988)" fill="#fff"/>
          <path id="Path_423" data-name="Path 423" d="M251.967,440.188v12.5h5.263v-12.5a2.556,2.556,0,0,1,2.554-2.554h3.086v-5.263h-3.086A7.825,7.825,0,0,0,251.967,440.188Z" transform="translate(-148.467 -386.34)" fill="#fff"/>
          <path id="Path_424" data-name="Path 424" d="M269.207,443.076,264.28,432.1h-5.655l7.776,17.521L265.335,452a3.636,3.636,0,0,1-3.268,2.052h-2.58v5.162h2.58a8.326,8.326,0,0,0,7.922-4.937l8.529-19.445.081-.3,1.058-2.424h-5.692Z" transform="translate(-141.654 -386.615)" fill="#fff"/>
          <path id="Path_425" data-name="Path 425" d="M273.606,431.852a2.555,2.555,0,0,1-2.554-2.554v-3.43l.028,0v-4.64h3.5v-4.959h-3.5v-6.639h-5.317v6.639h-3.045v4.959h3.045v5.34l.024,0V429.3a7.827,7.827,0,0,0,7.818,7.816h1.862v-5.263Z" transform="translate(-137.465 -409.617)" fill="#fff"/>
          <path id="Path_426" data-name="Path 426" d="M241.239,448.393v-3.43l.028,0v-4.64h3.5V435.36h-3.5v-6.432H235.95v6.432h-3.045v4.961h3.045v5.338l.026,0v2.736a7.825,7.825,0,0,0,7.816,7.816h1.861v-5.261h-1.861A2.558,2.558,0,0,1,241.239,448.393Z" transform="translate(-167.975 -389.864)" fill="#fff"/>
          <path id="Path_427" data-name="Path 427" d="M262.056,433.991a11.79,11.79,0,0,0,5.257-1.2,10.109,10.109,0,0,0,4.027-3.553l.714-1.084-4.014-2.855-.739.941a6.145,6.145,0,0,1-5.026,2.622,5.246,5.246,0,0,1-4.008-1.647,5.491,5.491,0,0,1-1.574-3.966,5.07,5.07,0,0,1,1.572-3.816,5.465,5.465,0,0,1,4.01-1.566,5.862,5.862,0,0,1,4.971,2.562l.7.949,4.073-2.659-.645-1.1a9.548,9.548,0,0,0-3.806-3.66,10.918,10.918,0,0,0-5.2-1.283,10.367,10.367,0,0,0-7.788,3.157,10.593,10.593,0,0,0-3.033,7.58,10.356,10.356,0,0,0,3.025,7.513A10.126,10.126,0,0,0,262.056,433.991Z" transform="translate(-148.896 -406.494)" fill="#fff"/>
          <path id="Path_428" data-name="Path 428" d="M210.664,409.75H200.83v27.194h5.342V425.168h4.492a7.709,7.709,0,1,0,0-15.418Zm-.121,10.238h-4.371v-5h4.371a2.5,2.5,0,0,1,0,5Z" transform="translate(-200.801 -409.491)" fill="#fff"/>
        </g>
      </g>
    </g>
    <g id="Group_451" data-name="Group 451" transform="translate(997.181 1286.9)">
      <rect id="Rectangle_46" data-name="Rectangle 46" width="35.715" height="35.715"/>
      <ellipse id="Ellipse_183" data-name="Ellipse 183" cx="7.172" cy="7.172" rx="7.172" ry="7.172" transform="translate(10.685 10.685)" fill="#fff"/>
    </g>
    <path id="Path_492" data-name="Path 492" d="M-15.7,0H25.323" transform="translate(975.226 1304.756)" fill="none" stroke="#000" stroke-width="2"/>
    <path id="Path_493" data-name="Path 493" d="M251.594,400c0,32.72-37.769,59.223-84.4,59.223S82.8,432.72,82.8,400" transform="translate(470.367 989.535)" fill="none" stroke="#000" stroke-miterlimit="10" stroke-width="2"/>
    <path id="Path_494" data-name="Path 494" d="M158.993,400.7c0,32.72-19.817,59.223-44.3,59.223S70.4,433.42,70.4,400.7" transform="translate(453.857 989.981)" fill="none" stroke="#000" stroke-miterlimit="10" stroke-width="2"/>
    <g id="Group_602" data-name="Group 602" transform="translate(271 -5113)">
      <path id="Exclusion_1" data-name="Exclusion 1" d="M11643.5,19802a17.5,17.5,0,1,1,12.377-5.127A17.383,17.383,0,0,1,11643.5,19802Zm-3.15-25a.325.325,0,0,0-.158.039.358.358,0,0,0-.189.313v14.068a.359.359,0,0,0,.188.314.406.406,0,0,0,.164.039.378.378,0,0,0,.2-.064l10.2-7.031a.349.349,0,0,0,.154-.289.338.338,0,0,0-.154-.293l-10.2-7.033A.379.379,0,0,0,11640.348,19777Z" transform="translate(-11004 -13321)" fill="#fff"/>
    </g>
  </g>
</svg>
