<svg xmlns="http://www.w3.org/2000/svg" width="44.944" height="69.995" viewBox="0 0 44.944 69.995">
  <path id="PF-Logo-03" d="M320.411,439.211a9.494,9.494,0,0,0-2.954-6.917,7.9,7.9,0,0,1-2.3-7.12,10.138,10.138,0,0,0-.074-3.732,9.1,9.1,0,0,0-1.6-3.585,9.572,9.572,0,0,0-6.444-3.851A7.889,7.889,0,0,1,301,409.612a9.572,9.572,0,0,0-12.786-4.448c-.125.061-.25.124-.372.191a8.62,8.62,0,0,0,1.537,15.831,18.774,18.774,0,0,1,0,36.035,8.556,8.556,0,0,0-6.08,8.23h0a8.616,8.616,0,0,0,4.56,7.614,9.571,9.571,0,0,0,12.956-3.915c.061-.117.122-.234.18-.353a7.891,7.891,0,0,1,6.054-4.393,9.576,9.576,0,0,0,8.172-10.8c-.018-.13-.038-.258-.061-.387a7.9,7.9,0,0,1,2.322-7.107A9.5,9.5,0,0,0,320.411,439.211Zm-24.507,0a10.218,10.218,0,1,0-10.218,10.22,10.218,10.218,0,0,0,10.218-10.22Z" transform="translate(-275.467 -404.206)"/>
</svg>
